<?xml version="1.0" encoding="UTF-8" standalone="no" ?>
<!DOCTYPE svg PUBLIC "-//W3C//DTD SVG 1.1//EN" "http://www.w3.org/Graphics/SVG/1.1/DTD/svg11.dtd">
<svg xmlns="http://www.w3.org/2000/svg" xmlns:xlink="http://www.w3.org/1999/xlink" version="1.1" width="1080" height="1080" viewBox="0 0 1080 1080" xml:space="preserve">
<desc>Created with Fabric.js 5.2.4</desc>
<defs>
</defs>
<rect x="0" y="0" width="100%" height="100%" fill="transparent"></rect>
<g transform="matrix(1 0 0 1 540 540)" id="b4626cd5-d20b-4e67-8587-3696a2cecb23"  >
</g>
<g transform="matrix(1 0 0 1 540 540)" id="061c7ade-6a4a-47f3-bc2b-0415063c8d11"  >
<rect style="stroke: none; stroke-width: 1; stroke-dasharray: none; stroke-linecap: butt; stroke-dashoffset: 0; stroke-linejoin: miter; stroke-miterlimit: 4; fill: rgb(255,255,255); fill-rule: nonzero; opacity: 1; visibility: hidden;" vector-effect="non-scaling-stroke"  x="-540" y="-540" rx="0" ry="0" width="1080" height="1080" />
</g>
<g transform="matrix(0 0 0 0 0 0)"  >
<g style=""   >
</g>
</g>
<g transform="matrix(0 0 0 0 0 0)"  >
<g style=""   >
</g>
</g>
<g transform="matrix(3.62 0 0 3.62 503.83 184.25)"  >
<path style="stroke: none; stroke-width: 1; stroke-dasharray: none; stroke-linecap: butt; stroke-dashoffset: 0; stroke-linejoin: miter; stroke-miterlimit: 4; fill: rgb(0,61,121); fill-rule: nonzero; opacity: 1;" vector-effect="non-scaling-stroke"  transform=" translate(-208.72, -7.03)" d="M 147.62 14.05 L 219.11 14.05 L 229.23000000000002 7.260000000000001 L 269.82000000000005 7.260000000000001 C 253.88000000000005 2.580000000000001 236.44000000000005 8.881784197001252e-16 218.18000000000006 8.881784197001252e-16 C 186.94000000000005 8.881784197001252e-16 147.63000000000005 14.05 147.63000000000005 14.05 Z" stroke-linecap="round" />
</g>
<g transform="matrix(3.62 0 0 3.62 538.47 275.16)"  >
<path style="stroke: none; stroke-width: 1; stroke-dasharray: none; stroke-linecap: butt; stroke-dashoffset: 0; stroke-linejoin: miter; stroke-miterlimit: 4; fill: rgb(0,61,121); fill-rule: nonzero; opacity: 1;" vector-effect="non-scaling-stroke"  transform=" translate(-218.18, -32.23)" d="M 219.11 23.01 L 130.25 23.01 C 124.37 26.55 118.91 30.450000000000003 113.92 34.650000000000006 L 126.59 41.440000000000005 L 219.11 41.440000000000005 L 229.23000000000002 34.650000000000006 L 322.44 34.650000000000006 C 319.63 32.28000000000001 316.68 30.020000000000007 313.58 27.860000000000007 L 229.23 27.860000000000007 L 219.10999999999999 23.010000000000005 Z" stroke-linecap="round" />
</g>
<g transform="matrix(3.62 0 0 3.62 544.87 375.05)"  >
<path style="stroke: none; stroke-width: 1; stroke-dasharray: none; stroke-linecap: butt; stroke-dashoffset: 0; stroke-linejoin: miter; stroke-miterlimit: 4; fill: rgb(0,61,121); fill-rule: nonzero; opacity: 1;" vector-effect="non-scaling-stroke"  transform=" translate(-219.86, -59.94)" d="M 299.15 55.57 L 229.22999999999996 55.57 L 219.10999999999996 50.72 L 136.28999999999996 50.72 L 140.96999999999997 55.57 L 94.78999999999996 55.57 C 93.28999999999996 57.78 91.88999999999996 60.05 90.59999999999997 62.35 L 147.09999999999997 62.35 L 152.79999999999995 69.15 L 219.10999999999996 69.15 L 229.22999999999996 62.35000000000001 L 292.93999999999994 62.35000000000001 L 287.23999999999995 69.15 L 349.12999999999994 69.15 C 346.2799999999999 62.690000000000005 342.54999999999995 56.53000000000001 338.0199999999999 50.730000000000004 L 303.8399999999999 50.730000000000004 L 299.1499999999999 55.580000000000005 Z" stroke-linecap="round" />
</g>
<g transform="matrix(3.62 0 0 3.62 540 473.27)"  >
<path style="stroke: none; stroke-width: 1; stroke-dasharray: none; stroke-linecap: butt; stroke-dashoffset: 0; stroke-linejoin: miter; stroke-miterlimit: 4; fill: rgb(0,61,121); fill-rule: nonzero; opacity: 1;" vector-effect="non-scaling-stroke"  transform=" translate(-218.48, -87.18)" d="M 276.93 82.82 L 229.23000000000002 82.82 L 219.11 77.97 L 159.69 77.97 L 163.10999999999999 82.82 L 82.64 82.82 C 82.12 85.05999999999999 81.69 87.32 81.38 89.61 L 167.54 89.61 L 171.84 96.39 L 219.11 96.39 L 229.23000000000002 89.61 L 272.25 89.61 L 268.01 96.39 L 355.59 96.39 C 355.32 90.08 354.23999999999995 83.92 352.42999999999995 77.97 L 280.28999999999996 77.97 L 276.93999999999994 82.82 Z" stroke-linecap="round" />
</g>
<g transform="matrix(3.62 0 0 3.62 539.9 572.46)"  >
<path style="stroke: none; stroke-width: 1; stroke-dasharray: none; stroke-linecap: butt; stroke-dashoffset: 0; stroke-linejoin: miter; stroke-miterlimit: 4; fill: rgb(0,61,121); fill-rule: nonzero; opacity: 1;" vector-effect="non-scaling-stroke"  transform=" translate(-218.46, -114.7)" d="M 260.22 110.34 L 229.22000000000003 110.34 L 219.10000000000002 105.49000000000001 L 177.01000000000002 105.49000000000001 L 179.70000000000002 110.34 L 81.53 110.34 C 81.87 112.62 82.31 114.88000000000001 82.87 117.12 L 182.96 117.12 L 186.01000000000002 123.91000000000001 L 219.11 123.91000000000001 L 229.23000000000002 117.12 L 256.81 117.12 L 253.71 123.91000000000001 L 351.46000000000004 123.91000000000001 C 353.54 117.97000000000001 354.86 111.80000000000001 355.39000000000004 105.49000000000001 L 262.82000000000005 105.49000000000001 L 260.22 110.34 Z" stroke-linecap="round" />
</g>
<g transform="matrix(3.62 0 0 3.62 543.44 671.66)"  >
<path style="stroke: none; stroke-width: 1; stroke-dasharray: none; stroke-linecap: butt; stroke-dashoffset: 0; stroke-linejoin: miter; stroke-miterlimit: 4; fill: rgb(0,61,121); fill-rule: nonzero; opacity: 1;" vector-effect="non-scaling-stroke"  transform=" translate(-219.48, -142.22)" d="M 248.2 137.85 L 229.23 137.85 L 219.10999999999999 133 L 189.75 133 L 191.56 137.85 L 91.33 137.85 C 92.66 140.17 94.12 142.43 95.67999999999999 144.65 L 193.85 144.65 L 196.06 151.43 L 219.1 151.43 L 229.22 144.65 L 245.79 144.65 L 243.64 151.43 L 335.4 151.43 C 340.31 145.65 344.40999999999997 139.49 347.62 133.01 L 250.10000000000002 133.01 L 248.20000000000002 137.85999999999999 Z" stroke-linecap="round" />
</g>
<g transform="matrix(3.62 0 0 3.62 548.56 770.85)"  >
<path style="stroke: none; stroke-width: 1; stroke-dasharray: none; stroke-linecap: butt; stroke-dashoffset: 0; stroke-linejoin: miter; stroke-miterlimit: 4; fill: rgb(0,61,121); fill-rule: nonzero; opacity: 1;" vector-effect="non-scaling-stroke"  transform=" translate(-220.97, -169.72)" d="M 239.98 165.37 L 229.23 165.37 L 219.10999999999999 160.52 L 198.41 160.52 L 199.62 165.37 L 115.23 165.37 C 118.12 167.74 121.16 170 124.35000000000001 172.16 L 201.07 172.16 L 202.26999999999998 178.94 L 219.10999999999999 178.94 L 229.23 172.16 L 238.45999999999998 172.16 L 237.2 178.94 L 300.84 178.94 C 310.53999999999996 173.65 319.25 167.45 326.71 160.51 L 241.19 160.51 L 239.99 165.35999999999999 Z" stroke-linecap="round" />
</g>
<g transform="matrix(3.62 0 0 3.62 565.4 856.46)"  >
<path style="stroke: none; stroke-width: 1; stroke-dasharray: none; stroke-linecap: butt; stroke-dashoffset: 0; stroke-linejoin: miter; stroke-miterlimit: 4; fill: rgb(0,61,121); fill-rule: nonzero; opacity: 1;" vector-effect="non-scaling-stroke"  transform=" translate(-225.83, -193.48)" d="M 235.3 192.89 L 229.23000000000002 192.89 L 219.11 188.04 L 203.66000000000003 188.04 L 204.23000000000002 192.89 L 170.87 192.89 C 185.62 196.79999999999998 201.55 198.92999999999998 218.17000000000002 198.92999999999998 C 240.73000000000002 198.92999999999998 262.01 194.99999999999997 280.78000000000003 188.03999999999996 L 235.80000000000004 188.03999999999996 L 235.29000000000005 192.88999999999996 Z" stroke-linecap="round" />
</g>
</svg>