<?xml version="1.0" encoding="UTF-8"?><svg id="Calque_1" xmlns="http://www.w3.org/2000/svg" viewBox="0 0 437.81 414.86"><defs><style>.cls-1{fill:#003d79;}.cls-2{fill:#231f20;}</style></defs><g><path class="cls-2" d="M129.54,285.09c-10.18-8.93-12.88-20.57-12.88-30.64,0-7.06,2.18-19.32,12.16-28.46,7.48-6.85,17.34-11.01,32.82-11.01,6.44,0,10.29,.42,15.06,1.04,3.95,.52,7.27,1.45,10.39,1.77,1.14,.1,1.56,.62,1.56,1.25,0,.83-.31,2.08-.52,5.71-.21,3.43-.11,9.14-.31,11.22-.1,1.56-.31,2.39-1.25,2.39-.83,0-1.04-.83-1.04-2.28-.1-3.22-1.45-6.86-4.05-9.56-3.43-3.63-11.53-6.44-21.09-6.44-9.04,0-14.96,2.29-19.53,6.44-7.58,6.96-9.56,16.83-9.56,26.9,0,24.72,18.8,36.98,32.72,36.98,9.24,0,14.85-1.04,19.01-5.81,1.77-1.97,3.11-4.99,3.53-6.85,.31-1.66,.52-2.08,1.35-2.08,.73,0,.93,.73,.93,1.56,0,1.25-1.25,10.28-2.28,13.82-.52,1.77-.94,2.28-2.7,3.01-4.16,1.66-12.05,2.39-18.7,2.39-14.23,0-26.17-3.12-35.63-11.32Z"/><path class="cls-2" d="M211.09,246.55c0-15.79,0-18.7-.21-22.02-.21-3.53-1.04-5.19-4.47-5.92-.83-.21-2.6-.31-4.05-.31-1.14,0-1.77-.21-1.77-.93s.73-.94,2.28-.94c5.51,0,12.05,.31,14.96,.31,4.26,0,10.28-.31,15.06-.31,12.98,0,17.66,4.36,19.32,5.92,2.28,2.18,5.19,6.86,5.19,12.36,0,14.75-10.8,25.14-25.55,25.14-.52,0-1.66,0-2.18-.1-.52-.1-1.24-.21-1.24-.94,0-.83,.73-1.14,2.91-1.14,5.82,0,13.92-6.54,13.92-17.14,0-3.43-.31-10.39-6.13-15.58-3.74-3.43-8-4.05-10.39-4.05-1.56,0-3.12,.1-4.05,.42-.52,.21-.83,.83-.83,1.97v41.55c0,9.56,0,17.76,.52,22.23,.31,2.91,.94,5.2,4.05,5.61,1.45,.21,3.74,.41,5.3,.41,1.15,0,1.66,.31,1.66,.83,0,.73-.83,1.04-1.98,1.04-6.85,0-13.4-.31-16.1-.31-2.39,0-8.93,.31-13.09,.31-1.35,0-2.08-.31-2.08-1.04,0-.52,.41-.83,1.66-.83,1.56,0,2.8-.21,3.74-.41,2.08-.42,2.6-2.7,3.01-5.72,.52-4.36,.52-12.57,.52-22.12v-18.28Z"/><path class="cls-2" d="M278.1,268.47c-.52,0-.73,.21-.94,.83l-5.61,14.23c-1.04,2.6-1.56,5.09-1.56,6.34,0,1.87,.93,3.22,4.16,3.22h1.56c1.24,0,1.55,.21,1.55,.83,0,.83-.62,1.04-1.76,1.04-3.32,0-7.79-.31-11.01-.31-1.14,0-6.86,.31-12.25,.31-1.35,0-1.97-.21-1.97-1.04,0-.62,.41-.83,1.25-.83,.94,0,2.39-.1,3.22-.21,4.78-.62,6.75-4.16,8.83-9.35l26.07-64.4c1.24-3.01,1.87-4.16,2.91-4.16,.93,0,1.56,.94,2.6,3.32,2.49,5.71,19.11,47.26,25.76,63.05,3.95,9.35,6.96,10.8,9.14,11.32,1.56,.31,3.12,.41,4.37,.41,.83,0,1.35,.1,1.35,.83,0,.83-.94,1.04-4.78,1.04s-11.32,0-19.63-.21c-1.87-.1-3.11-.1-3.11-.83,0-.62,.41-.83,1.45-.94,.73-.21,1.45-1.14,.93-2.39l-8.31-21.4c-.21-.52-.52-.73-1.04-.73h-23.16Zm21.19-5.19c.52,0,.62-.31,.52-.62l-9.35-25.55c-.1-.42-.21-.93-.52-.93s-.52,.52-.62,.93l-9.55,25.45c-.1,.41,0,.73,.41,.73h19.11Z"/></g><g><path class="cls-2" d="M56.54,344.61l-3.76,8.03h-2.93l11.08-23.32h2.86l11.22,23.32h-3.07l-3.77-8.03h-11.64Zm10.94-1.28l-3-6.57c-.84-1.8-1.46-3.46-2.09-5.33h-.28c-.56,1.9-1.25,3.63-2.02,5.36l-2.93,6.54h10.32Z"/><path class="cls-2" d="M83.17,329.31v15.92c0,4.71,3.34,6.33,7.6,6.33,4.81,0,7.81-1.87,7.81-6.33v-15.92h3v15.74c0,6.09-5.3,7.85-10.94,7.85s-10.46-1.63-10.46-7.37v-16.23h3Z"/><path class="cls-2" d="M115.93,330.59h-8.78v-1.28h20.56v1.28h-8.78v22.04h-3v-22.04Z"/><path class="cls-2" d="M140.33,352.91c-6.07,0-11.92-3.22-11.92-11.94s5.92-11.94,12.76-11.94c5.99,0,11.78,3.18,11.78,11.94s-5.85,11.94-12.55,11.94h-.07Zm.42-1.35c7.39,0,9.06-6.09,9.06-10.59s-1.81-10.59-9.13-10.59-9.13,6.02-9.13,10.59,1.81,10.59,9.13,10.59h.07Z"/><path class="cls-2" d="M187.94,341.42c-.35-3.6-.69-7.26-.49-10h-.35c-1.11,2.66-2.37,5.4-4.18,8.68l-6.83,12.52h-1.53l-6.48-11.9c-1.95-3.63-3.42-6.5-4.46-9.31h-.28c.14,2.87-.14,6.33-.49,10.28l-.9,10.93h-3l2.44-23.32h3.49l6.55,12.04c1.74,3.15,2.93,5.26,4.04,7.92h.21c1.04-2.7,2.09-4.67,3.76-7.92l6.34-12.04h3.77l2.58,23.32h-3.07l-1.12-11.21Z"/><path class="cls-2" d="M203.7,344.61l-3.76,8.03h-2.93l11.08-23.32h2.86l11.22,23.32h-3.07l-3.77-8.03h-11.64Zm10.94-1.28l-3-6.57c-.84-1.8-1.46-3.46-2.09-5.33h-.28c-.56,1.9-1.25,3.63-2.02,5.36l-2.93,6.54h10.32Z"/><path class="cls-2" d="M229.63,330.59h-8.78v-1.28h20.56v1.28h-8.78v22.04h-3v-22.04Z"/><path class="cls-2" d="M249.91,329.31v23.32h-3v-23.32h3Z"/><path class="cls-2" d="M257.58,350.52c1.39,.48,3.97,.97,6.13,.97,5.3,0,8.72-1.9,8.72-4.77,0-2.46-2.79-4.05-6.27-5.5-2.02-.86-8.85-2.87-8.85-6.44s4.95-5.67,10.94-5.67c2.79,0,5.09,.48,6.06,.86l-1.18,1.28c-1.12-.41-3.07-.8-5.37-.8-5.02,0-7.39,2.08-7.39,3.91,0,2.87,3.07,3.91,7.18,5.5,5.3,2.08,7.95,4.08,7.95,6.75,0,3.87-5.3,6.23-11.71,6.23-2.86,0-6.06-.55-7.25-1.07l1.05-1.25Z"/><path class="cls-2" d="M286.86,344.61l-3.76,8.03h-2.93l11.08-23.32h2.86l11.22,23.32h-3.07l-3.77-8.03h-11.64Zm10.94-1.28l-3-6.57c-.84-1.8-1.46-3.46-2.09-5.33h-.28c-.56,1.9-1.25,3.63-2.02,5.36l-2.93,6.54h10.32Z"/><path class="cls-2" d="M312.79,330.59h-8.78v-1.28h20.56v1.28h-8.78v22.04h-3v-22.04Z"/><path class="cls-2" d="M333.08,329.31v23.32h-3v-23.32h3Z"/><path class="cls-2" d="M351.97,352.91c-6.07,0-11.92-3.22-11.92-11.94s5.92-11.94,12.76-11.94c5.99,0,11.78,3.18,11.78,11.94s-5.85,11.94-12.55,11.94h-.07Zm.42-1.35c7.39,0,9.06-6.09,9.06-10.59s-1.81-10.59-9.13-10.59-9.13,6.02-9.13,10.59,1.81,10.59,9.13,10.59h.07Z"/><path class="cls-2" d="M371.41,352.63v-23.32h3l9.48,12.04c2.3,2.94,4.81,6.09,6.62,8.92h.14c-.49-4.43-.49-6.78-.49-10.66v-10.31h2.86v23.32h-3l-10.04-12.66c-2.09-2.59-4.04-5.05-6.06-8.48h-.14c.49,3.6,.49,6.16,.49,11.31v9.82h-2.86Z"/></g><g><path class="cls-2" d="M26.86,396.36c-.7,0-.82,.6-.92,1.13-.14,.68-.63,1.78-1.21,2.45-1.47,1.75-3.5,2.09-6.73,2.09-4.72,0-11.71-4.39-11.71-13.8,0-4.65,1.08-7.84,3.41-10.04,1.73-1.64,3.88-2.37,6.96-2.37,3.71,0,6.45,1.18,7.51,2.35,.83,.88,1.35,2.15,1.39,3.38,0,.32,0,1.31,.81,1.31s.87-.86,.89-1.3c.04-.42,.05-1.15,.06-2.01,.01-.81,.02-1.67,.06-2.32,.05-.85,.11-1.35,.15-1.69,.03-.24,.05-.4,.05-.53,0-.39-.25-.84-.96-.92-.59-.06-1.2-.18-1.86-.32-.62-.13-1.27-.26-1.98-.36-1.68-.23-3.15-.4-5.64-.4-5.39,0-9.35,1.38-12.48,4.35-4.18,4.01-4.64,9.22-4.64,11.27,0,5.06,1.65,9.13,4.92,12.11h0c3.35,3.01,7.76,4.47,13.5,4.47,2.32,0,5.4-.25,7.11-.95,.76-.34,1-.62,1.23-1.44,.39-1.37,.87-4.89,.87-5.44,0-.95-.59-1.02-.77-1.02Z"/><path class="cls-2" d="M50.71,397.71c-.69,0-.79,.63-.84,.96-.25,1.51-.65,2.23-1.5,2.64-.91,.44-2.49,.44-3.44,.44-3.8,0-4.14-.48-4.19-2.94-.03-.81-.02-2.88,0-4.53v-4.78c1.25,0,4.58,.04,5.22,.11,1.35,.16,1.66,.69,1.79,1.23,.07,.34,.09,.69,.11,1,0,.14,.02,.27,.03,.35,0,.47,.31,.78,.78,.78,.78,0,.78-.89,.78-1.18,0-.17,.04-.78,.08-1.42,.03-.45,.06-.91,.07-1.23,.1-1.32,.2-2.07,.26-2.47,.03-.24,.05-.39,.05-.48,0-.46-.27-.75-.7-.75-.38,0-.62,.29-.93,.66-.25,.29-.75,.38-1.58,.46-.54,.05-2.71,.08-5.96,.08v-10.11c1.05,0,4.66,.08,5.26,.16,1.88,.23,2.06,.69,2.25,1.18,.15,.38,.19,1,.19,1.27,0,.86,.48,.98,.77,.98s.67-.13,.81-.8c.04-.3,.08-.97,.12-1.63,.03-.45,.05-.85,.07-1.04,.08-1.22,.18-1.82,.25-2.18,.04-.21,.06-.35,.06-.46,0-.73-.5-.78-.65-.78-.19,0-.36,.06-.51,.11-.07,.02-.13,.05-.22,.06-.25,.06-.76,.13-1.36,.21l-.21,.03c-.65,.03-6.94,.03-9.61,.03-.53,0-1.41-.03-2.43-.08-.47,0-.98,0-1.5-.02-.54-.01-1.1-.02-1.63-.02-.31,0-1.28,0-1.28,.79,0,.36,.19,.78,1.08,.78,.56,0,1.16,.05,1.42,.12,.99,.22,1.25,.59,1.32,1.88,.07,1.27,.07,2.36,.07,8.45v7.04c0,3.66,0,6.81-.19,8.46-.14,1.09-.31,1.74-.79,1.84-.28,.07-.72,.15-1.28,.15-.91,0-1.04,.47-1.04,.74,0,.25,.12,.83,1.19,.83,.38,0,.81-.02,1.25-.04,.47-.02,.95-.04,1.42-.04,.92-.05,1.76-.05,2.17-.05h0c1.14,0,2.32,.05,4,.13l1.29,.03c1.44,.04,3.19,.08,5.4,.08,1.47,0,2.15,0,2.49-1.36,.2-.82,.51-3.58,.51-4.54,0-.37,0-1.15-.73-1.15Z"/><path class="cls-2" d="M39.3,371.34c.17,0,.34-.09,.67-.26l.2-.11c1.38-.77,4.38-2.04,6.44-2.31,.52-.06,.83-.03,1.04-.01,.09,0,.16,.01,.22,.01,.26,0,.48-.12,.61-.32,.1-.16,.18-.45-.03-.88-.46-1.07-.81-1.86-1.13-2.44-.21-.37-.39-.69-.92-.69-.27,0-.65,.17-1,.43-.6,.39-4.7,3.52-6.27,5.08-.22,.23-.47,.49-.47,.82,0,.39,.34,.67,.65,.67Z"/><path class="cls-2" d="M85.48,388.8c-.66,0-1.52,.03-2.36,.06-.8,.03-1.58,.06-2.16,.06-.5,0-1.23-.02-2.07-.05-1.11-.04-2.39-.08-3.53-.08-.3,0-1.23,0-1.23,.83,0,.22,.1,.75,1,.75,.55,0,1.15,.05,1.42,.12,1,.22,1.29,.63,1.32,1.88,.04,1.19,.04,2.66,.04,4.7v3.76c0,.71-.19,.94-.49,1.09-.84,.4-2.14,.4-3.09,.4-7.65,0-12.99-6-12.99-14.6,0-4.38,1.11-7.48,3.39-9.48,2.45-2.1,4.98-2.38,7.36-2.38,4.4,0,7.34,1.95,8.27,2.99,.93,1.05,1.1,2.28,1.2,3.09,.03,.22,.11,.89,.82,.89,.84,0,.84-.89,.84-1.27,0-3.85,.17-5.41,.24-6.07,.02-.22,.04-.37,.04-.47,0-.57-.29-.86-.94-.92-.99-.05-2.54-.34-2.99-.43-.67-.14-4.12-.65-6.91-.65-3.07,0-6.68,.21-10.58,2.66-4.33,2.7-6.91,7.72-6.91,13.43,0,11.87,9.42,16.1,18.23,16.1,1.82,0,6.4-.18,9.51-1.86,.66-.4,.71-.65,.71-1.8v-4.4c0-2.01,0-3.6,.03-4.79,.04-1.4,.42-1.74,1.12-1.87,.46-.08,.69-.12,.96-.12,.69,0,.93-.4,.93-.75,0-.83-.89-.83-1.19-.83Z"/><path class="cls-2" d="M109.2,397.71c-.68,0-.79,.62-.85,.96-.26,1.54-.65,2.23-1.49,2.64-.92,.44-2.5,.44-3.44,.44-3.78,0-4.13-.48-4.2-2.94-.03-.81-.02-2.88,0-4.53v-4.78c1.24,0,4.6,.04,5.24,.11,1.35,.16,1.66,.69,1.79,1.23,.07,.34,.09,.68,.11,.99,.01,.14,.02,.28,.03,.36,0,.48,.3,.78,.77,.78,.78,0,.78-.89,.78-1.19,0-.14,.03-.62,.06-1.16,.03-.53,.07-1.11,.08-1.49,.1-1.32,.21-2.07,.26-2.46,.03-.25,.05-.39,.05-.48,0-.46-.28-.75-.7-.75-.39,0-.63,.3-.93,.67-.25,.29-.74,.38-1.57,.46-.54,.05-2.72,.08-5.98,.08v-10.11c1.06,0,4.68,.08,5.27,.16,1.87,.23,2.05,.69,2.24,1.19,.15,.34,.2,.9,.2,1.26,0,.86,.48,.98,.77,.98,.25,0,.68-.1,.81-.78,.06-.35,.11-1.22,.15-1.92,.02-.33,.03-.62,.05-.76,.08-1.21,.19-1.81,.25-2.17,.04-.21,.06-.35,.06-.46,0-.75-.55-.78-.66-.78-.18,0-.35,.06-.51,.11-.07,.02-.13,.05-.21,.06-.29,.08-.94,.15-1.58,.23-.46,.03-3.96,.04-9.61,.04-.42,0-1.03-.03-1.75-.06l-.69-.03c-.47,0-.97,0-1.48-.02-.54-.01-1.09-.02-1.63-.02-.35,0-1.28,0-1.28,.79,0,.36,.19,.78,1.09,.78,.54,0,1.15,.05,1.41,.1,.99,.23,1.25,.6,1.33,1.9,.08,1.27,.08,2.36,.08,8.45v7.04c0,3.66,0,6.81-.19,8.46-.15,1.12-.32,1.74-.78,1.84-.32,.07-.75,.15-1.3,.15-.91,0-1.04,.47-1.04,.74,0,.25,.12,.83,1.19,.83,.38,0,.82-.02,1.27-.04,.46-.02,.94-.04,1.41-.04,.92-.05,1.76-.05,2.17-.05h0c1.14,0,2.32,.05,4,.13l1.28,.03c1.45,.04,3.2,.08,5.41,.08,1.46,0,2.13,0,2.49-1.36,.2-.83,.51-3.59,.51-4.54,0-.37,0-1.15-.73-1.15Z"/><path class="cls-2" d="M126.38,373.56c-.91,0-1.95,.03-2.96,.07-.94,.03-1.86,.06-2.62,.06-.45,0-1.13-.02-1.93-.05-1.11-.04-2.43-.08-3.63-.08-.35,0-1.27,0-1.27,.79,0,.36,.19,.78,1.08,.78,.54,0,1.16,.05,1.4,.1,.99,.23,1.25,.6,1.33,1.9,.07,1.27,.07,2.36,.07,8.45v7.04c0,3.66,0,6.81-.18,8.46-.15,1.12-.32,1.74-.8,1.84-.28,.07-.72,.15-1.29,.15-.9,0-1.04,.47-1.04,.74,0,.31,.16,.83,1.2,.83,.88,0,2.05-.04,3.06-.08,.75-.03,1.41-.05,1.79-.05s.98,.02,1.71,.04c1.18,.04,2.7,.08,4.27,.08,.85,0,1.16-.43,1.16-.83,0-.17-.08-.74-1.04-.74-.55,0-1.37-.08-1.9-.16-.74-.1-1.01-.52-1.15-1.78-.19-1.7-.19-4.85-.19-8.51v-15.99c0-.3,.06-.35,.04-.36,.25-.09,.74-.14,1.35-.14s2.19,.14,3.57,1.45c1.91,1.77,2.13,4.09,2.13,5.69,0,3.82-2.76,6.16-4.74,6.16-.48,0-1.49,0-1.49,.87,0,.62,.58,.74,.8,.78,.21,.04,.56,.05,.89,.05,5.74,0,9.9-4.25,9.9-10.11,0-2.24-1.1-4.13-2.07-5.08-.68-.65-2.49-2.38-7.46-2.38Z"/><path class="cls-2" d="M163.01,377.98c-1.2,0-2.53,.03-3.63,.06-.78,.02-1.45,.03-1.88,.03-.4,0-1.02-.02-1.74-.03-.98-.03-2.13-.06-3.15-.06-.8,0-1.2,.25-1.2,.76,0,.36,.26,.79,1,.79,.53,0,1.04,.04,1.23,.1,.93,.27,1.1,.49,1.16,1.44,.04,1.07,.04,2.01,.04,7.19v6c0,3.1,0,5.78-.15,7.18-.12,1.11-.32,1.35-.7,1.44-.27,.07-.62,.11-1.08,.11-.67,0-.97,.4-.97,.79,0,.18,.08,.78,1.08,.78,.7,0,1.56-.04,2.36-.08,.48,0,.94-.01,1.31-.02,.25,0,.47-.01,.63-.01,.74,0,1.85,.06,3.4,.19l.95,.06c1.06,.07,2.15,.15,3.12,.15,6.94,0,10.48-2.9,11.67-4.14,2.43-2.46,3.82-6.02,3.82-9.77,0-4.78-2.08-7.64-3.31-8.92-3.83-4.02-9.68-4.02-13.95-4.02Zm-2.77,9.75c0-2.69,0-5.47,.04-6.63,0-.23,0-.23,.2-.32,.17-.08,1.09-.18,1.88-.18,2.48,0,6.14,.32,9.2,3.13,.71,.65,3.02,3.14,3.02,8.17,0,3.88-.9,6.53-2.74,8.11-1.84,1.57-3.9,2.22-7.12,2.22-2.44,0-3.72-.63-4.09-1.2-.07-.08-.23-.46-.29-2.16-.04-.68-.08-3.31-.08-6.86v-4.27Z"/><path class="cls-2" d="M201.07,398.33c-.62,0-.75,.57-.81,.88-.22,1.31-.54,1.89-1.22,2.21-.89,.4-2.48,.4-3.01,.4-3.54,0-4.1-.55-4.16-2.44-.03-.68-.02-2.31,0-3.62v-4.04c1.18,.01,4.5,.08,5.04,.15,1.16,.11,1.39,.56,1.51,.96,.05,.28,.06,.55,.08,.8,0,.15,.02,.29,.03,.38,0,.42,.3,.71,.74,.71,.18,0,.78-.09,.78-1.18,0-.22,.07-1.56,.15-2.24,.08-.73,.14-1.25,.18-1.63,.06-.53,.09-.78,.09-.9,0-.44-.3-.79-.69-.79-.28,0-.46,.19-.62,.35-.06,.06-.12,.13-.24,.24-.2,.23-.58,.3-1.34,.38-.46,.05-2.53,.07-5.68,.07v-8.22c1.06,.01,4.56,.09,5.08,.16,1.49,.13,1.66,.49,1.89,.99,.15,.3,.18,.81,.18,1.06,0,.74,.44,.85,.7,.85,.59,0,.75-.64,.81-.9,.05-.24,.08-.76,.13-1.46,.02-.35,.04-.66,.06-.83,.05-1.05,.16-1.54,.22-1.84,.03-.15,.06-.26,.06-.38,0-.55-.36-.75-.66-.75-.16,0-.31,.06-.46,.11-.06,.02-.12,.05-.15,.06l-.29,.05c-.28,.05-.67,.12-1.09,.15-.49,.02-5.11,.01-7.59,0h-1.63c-.41,0-1.03-.02-1.74-.04-.98-.03-2.14-.06-3.16-.06-.79,0-1.19,.25-1.19,.76,0,.36,.26,.79,1.01,.79,.59,0,1.06,.05,1.22,.1,.93,.27,1.1,.49,1.17,1.44,.03,1.08,.03,2.01,.03,7.19v6c0,3.1,0,5.78-.15,7.18-.13,1.11-.33,1.36-.7,1.44-.27,.07-.62,.11-1.08,.11-.67,0-.97,.4-.97,.79,0,.18,.08,.78,1.08,.78,.7,0,1.57-.04,2.35-.08,.49,0,.94-.01,1.32-.02,.25,0,.46-.01,.62-.01,.85,0,1.9,.03,3.21,.06l.7,.02c1.65,.08,3.69,.12,6.24,.12,1.27,0,1.91,0,2.22-1.18,.2-.72,.48-3.09,.48-3.88s-.25-1.23-.73-1.23Z"/><path class="cls-2" d="M228.69,373.46c-.84,0-1.98,.04-2.97,.07-.78,.03-1.47,.05-1.88,.05s-1.06-.02-1.83-.05c-1.1-.04-2.44-.08-3.65-.08-.35,0-1.27,0-1.27,.79,0,.36,.19,.78,1.08,.78,.54,0,1.15,.05,1.41,.12,.99,.22,1.25,.59,1.33,1.89,.08,1.27,.08,2.36,.08,8.44v11.73c0,7.62,0,11.44-2.78,14.36-.67,.69-1.22,1.15-1.74,1.44-.66,.36-1.07,.61-1.07,1.09,0,.42,.32,.75,.74,.75,.28,0,.67-.12,.97-.29,.83-.42,1.44-.73,1.96-1.06,3.37-2.15,5.76-4.91,6.72-7.77,.86-2.49,.96-5.31,.96-7.22,0-1.04-.04-2.06-.07-3.05-.03-.9-.06-1.77-.06-2.6v-7.39c0-6.08,0-7.18,.08-8.45,.08-1.44,.41-1.76,1.18-1.9,.39-.07,.58-.1,.94-.1,.75,0,1.13-.26,1.13-.78,0-.79-.94-.79-1.24-.79Z"/><path class="cls-2" d="M246.8,377.5c-10.06,0-14.64,7.12-14.64,13.74s4.47,13.74,14.29,13.74c8.62,0,14.65-5.9,14.65-14.34s-5.48-13.14-14.3-13.14Zm8.4,14.38c0,9.4-5.15,10.41-7.36,10.41-5.88,0-9.83-4.86-9.83-12.09,0-8.75,4.88-10.05,7.79-10.05,5.53,0,9.4,4.82,9.4,11.73Z"/><path class="cls-2" d="M291.08,377.98c-1.12,0-2.07,.04-2.69,.07-.29,.01-.5,.02-.63,.02-.29,0-.73-.01-1.28-.03-.86-.03-1.95-.06-3.04-.06-.35,0-1.28,0-1.28,.76,0,.38,.26,.79,.97,.79,.41,0,1.18,0,1.61,.17,.52,.2,.84,.48,.88,2.62l.32,14.19c-.38-.4-.91-.95-1.51-1.58-1.63-1.72-3.82-4.02-5.22-5.44-4.04-4.1-8.21-8.49-9.78-10.15l-.75-.78c-.61-.64-1.09-1.14-1.66-1.14-.61,0-1.02,.64-1.02,1.58l-.3,20.15c-.05,2.91-.18,3.57-.72,3.71-.36,.09-.89,.15-1.44,.15s-.97,.34-.97,.79c0,.78,.84,.78,1.2,.78,1.24,0,2.4-.06,3.1-.09,.28-.01,.48-.02,.56-.02,.21,0,.53,.01,.95,.03,.8,.03,2,.08,3.44,.08,.99,0,1.2-.42,1.2-.78,0-.39-.31-.79-1-.79s-1.21-.07-1.62-.21c-.38-.14-.82-.64-.88-3.29l-.36-12.91c.27,.29,.6,.65,.99,1.08,1.55,1.7,3.9,4.26,6.32,6.66,3.71,3.72,7.88,7.84,9.9,9.78,.53,.57,1.1,.86,1.69,.86,.16,0,.97-.07,.97-1.5l.37-21.42c.05-1.93,.32-2.21,.93-2.4,.37-.1,.59-.1,.92-.1,.69,0,1-.41,1-.79,0-.76-.86-.76-1.19-.76Z"/><path class="cls-2" d="M345.14,407.69c-.24,0-.44,.09-.65,.19-1.8,.7-3.98,1.06-6.47,1.06-3.84,0-8.44-1.34-13.69-4l-6.05-3.05c1.79-1.42,5.44-5.06,5.44-11.08,0-7.96-5.76-13.31-14.34-13.31-10.56,0-14.5,8.33-14.5,13.58,0,6.69,4.46,13.9,14.26,13.9,1.77,0,3.99-.33,5.31-.79l5.1,3.13c5.67,3.49,9.35,4.66,14.6,4.66,3.66,0,7.38-.92,11.06-2.73,.2-.1,.66-.33,.66-.82,0-.4-.35-.75-.74-.75Zm-36.53-27.54c4.42,0,9.17,3.62,9.17,11.57,0,6.91-2.51,10.57-7.26,10.57s-9.74-3.71-9.74-12.01c0-8.82,4.9-10.13,7.82-10.13Z"/><path class="cls-2" d="M352.8,377.98c-.85,0-2.11,.04-3,.07-.47,.01-.85,.03-1.07,.02-2-.07-3.25-.09-3.94-.09-.93,0-1.13,.41-1.13,.76,0,.13,.05,.79,1,.79,.44,0,.94,.04,1.12,.1,.9,.27,1.06,.47,1.12,1.44,.04,1.05,.08,1.97,.08,7.18v4.28c0,3.62-.13,6.3-1.85,7.98-1.45,1.45-3.28,1.67-4.24,1.67-1.22,0-2.65-.15-4.01-1.27-1.5-1.22-2.42-2.96-2.42-7.9v-4.76c0-5.17,0-6.1,.07-7.17,.07-1.18,.32-1.34,.88-1.44,.42-.08,.58-.11,.93-.11,.71,0,.96-.41,.96-.79,0-.5-.39-.76-1.16-.76-.68,0-1.68,.03-2.57,.05-.73,.02-1.4,.04-1.78,.04-.42,0-1.08-.02-1.82-.04-1.02-.03-2.22-.06-3.27-.06-.77,0-1.16,.25-1.16,.76,0,.18,.07,.79,1.01,.79,.49,0,.99,.04,1.18,.1,.91,.27,1.11,.42,1.16,1.46,.06,.79,.05,1.54,.05,4v8.16c0,4.38,1.02,7.34,3.21,9.32,2.68,2.42,6.57,2.42,8.04,2.42,1.94,0,4.83-.26,7.45-2.54,2.97-2.54,3.38-6.57,3.38-10.55v-3.64c0-4.83,.04-5.97,.07-6.99v-.19c.09-1.2,.3-1.34,.9-1.45,.4-.08,.58-.11,.92-.11,.96,0,1.01-.66,1.01-.79,0-.34-.19-.76-1.12-.76Z"/><path class="cls-2" d="M367.14,402.98c-.51,0-1.24-.04-1.67-.12-.74-.12-.89-.4-.99-1.22-.15-1.42-.15-4.19-.15-7.39v-6c0-5.17,0-6.1,.07-7.17,.08-1.18,.33-1.34,.94-1.45,.38-.08,.61-.11,.91-.11,.85,0,.97-.52,.97-.83,0-.26-.15-.71-1.13-.71-.73,0-1.73,.03-2.62,.05-.71,.02-1.35,.04-1.72,.04-.44,0-1.17-.02-1.96-.04-.92-.02-1.91-.05-2.59-.05-.82,0-1.24,.24-1.24,.71,0,.31,.13,.83,.97,.83,.45,0,.82,.04,1.11,.13,.48,.16,.78,.34,.86,1.42,.04,1.07,.04,2.01,.04,7.18v6c0,3.21,0,5.98-.16,7.34-.12,1.04-.3,1.19-.7,1.28-.26,.07-.62,.11-1.08,.11-.67,0-.96,.4-.96,.79,0,.18,.08,.78,1.08,.78,.77,0,1.86-.04,2.8-.07,.7-.02,1.31-.05,1.63-.05,.36,0,.93,.02,1.62,.04,1.09,.03,2.48,.08,3.85,.08,.8,0,1.08-.4,1.08-.78s-.33-.79-.96-.79Z"/><path class="cls-2" d="M375.73,372.35c.07,.03,7.22,3.36,8.02,3.36,.41,0,.84-.26,.84-.7s-.35-.64-.63-.82c-.11-.07-.22-.14-.35-.25-1.7-1.27-3.85-3.52-4.18-3.98-.15-.22-.25-.39-.32-.53-.13-.24-.28-.54-.65-.54-.24,0-.4,.08-.62,.18l-.3,.14c-.47,.22-1.81,.74-2.5,.98-.25,.06-.82,.2-.82,.77,0,.69,1.27,1.28,1.51,1.38Z"/><path class="cls-2" d="M389.21,398.33c-.61,0-.73,.58-.8,.88-.21,1.31-.54,1.89-1.22,2.2-.88,.4-2.49,.4-3.02,.4-3.51,0-4.1-.58-4.16-2.44-.03-.69-.02-2.32,0-3.62v-4.04c1.17,.01,4.49,.08,5.06,.15,1.16,.11,1.39,.56,1.5,.97,.05,.27,.07,.53,.09,.77,.01,.16,.02,.3,.03,.39,0,.42,.3,.71,.73,.71,.29,0,.77-.15,.77-1.18,0-.23,.07-1.58,.14-2.24l.16-1.36c.09-.72,.12-1.03,.12-1.17,0-.44-.31-.79-.7-.79-.28,0-.46,.19-.61,.35-.06,.06-.12,.13-.25,.25-.2,.24-.64,.3-1.33,.38-.47,.05-2.55,.07-5.7,.07v-8.22c1.06,.01,4.58,.09,5.1,.16,1.51,.13,1.67,.5,1.88,.99,.15,.31,.19,.81,.19,1.05,0,.7,.38,.85,.7,.85,.24,0,.66-.12,.8-.9,.05-.26,.09-.85,.13-1.42,.03-.36,.05-.69,.07-.87,.05-1.05,.15-1.54,.21-1.84,.03-.17,.05-.29,.05-.38,0-.55-.35-.75-.65-.75-.18,0-.33,.06-.47,.11-.06,.02-.11,.05-.13,.05l-.29,.05c-.28,.05-.67,.12-1.1,.15-.5,.02-5.11,0-7.59,0h-1.64c-.4,0-1.01-.02-1.72-.04-.98-.03-2.14-.06-3.17-.06-.98,0-1.19,.41-1.19,.76,0,.36,.26,.79,1.01,.79,.52,0,1.03,.04,1.22,.1,.92,.27,1.1,.49,1.16,1.45,.05,1.07,.05,2,.05,7.18v6c0,3.1,0,5.78-.15,7.18-.13,1.11-.33,1.36-.7,1.44-.26,.07-.62,.11-1.09,.11-.66,0-.96,.4-.96,.79,0,.18,.08,.78,1.08,.78,.71,0,1.56-.04,2.36-.08,.48,0,.94-.01,1.31-.02,.25,0,.46-.01,.62-.01,.84,0,1.89,.03,3.2,.06l.71,.02c1.65,.08,3.7,.12,6.26,.12,1.27,0,1.9,0,2.21-1.18,.2-.72,.49-3.09,.49-3.88s-.25-1.23-.74-1.23Z"/><path class="cls-2" d="M437.07,398.33c-.63,0-.75,.61-.8,.87-.22,1.31-.54,1.89-1.22,2.21-.89,.4-2.5,.4-3.03,.4-3.54,0-4.09-.55-4.15-2.44-.03-.69-.02-2.31,0-3.62v-4.04c1.18,.01,4.48,.08,5.05,.15,1.17,.11,1.4,.58,1.51,.97,.06,.3,.07,.6,.09,.87l.02,.3c0,.41,.31,.71,.75,.71,.23,0,.77-.12,.77-1.18,0-.21,.07-1.56,.15-2.24l.16-1.45c.07-.65,.1-.94,.1-1.07,0-.44-.31-.79-.69-.79-.29,0-.47,.19-.65,.38-.05,.06-.11,.12-.22,.22-.2,.24-.64,.3-1.33,.38-.48,.05-2.55,.07-5.7,.07v-8.22c1.07,.01,4.56,.09,5.09,.16,1.48,.13,1.65,.49,1.88,.99,.15,.3,.18,.81,.18,1.06,0,.7,.38,.85,.7,.85,.28,0,.65-.15,.8-.9,.06-.3,.11-1.04,.17-1.83l.03-.46c.06-1.04,.16-1.54,.22-1.84,.03-.16,.06-.27,.06-.38,0-.51-.34-.75-.67-.75-.17,0-.33,.06-.47,.12-.06,.02-.11,.05-.12,.05l-.27,.05c-.28,.05-.68,.12-1.11,.15-.49,.02-5.11,.01-7.59,0h-1.65c-.4,0-1.02-.02-1.73-.04-.98-.03-2.14-.06-3.16-.06s-1.19,.41-1.19,.76c0,.36,.26,.79,1.01,.79,.53,0,1.03,.04,1.22,.1,.92,.27,1.1,.49,1.16,1.45,.05,1.07,.05,2,.05,7.18v6c0,3.1,0,5.78-.16,7.18-.13,1.11-.32,1.36-.69,1.44-.26,.07-.62,.11-1.08,.11-.19,0-.34,.04-.47,.09-.11-.05-.24-.09-.38-.09-.25,0-.41,0-.7-.07l-.13-.03c-.57-.13-1.62-.36-3.29-2.1-1.95-2.02-4.2-4.89-7.05-8.53l-.11-.14c3.17-2.72,4.53-5.01,4.53-7.59s-1.61-4.33-2.57-5.02c-1.97-1.35-4.6-1.52-6.68-1.52-.51,0-1.5,.02-2.52,.04-1.07,.02-2.17,.05-2.77,.05-.26,0-.74-.01-1.32-.03-.96-.03-2.2-.06-3.29-.06-.8,0-1.2,.25-1.2,.76,0,.36,.26,.79,1.01,.79,.53,0,1.03,.04,1.23,.1,.92,.27,1.1,.49,1.16,1.44,.04,1.07,.04,2.01,.04,7.18v6c0,3.1,0,5.78-.16,7.18-.13,1.11-.33,1.36-.69,1.44-.27,.07-.63,.11-1.08,.11-.71,0-.96,.42-.96,.79,0,.18,.08,.78,1.08,.78,.8,0,1.88-.04,2.77-.07,.61-.02,1.13-.04,1.4-.04,.17,0,.59,.01,1.16,.03,1.13,.03,2.82,.09,4.13,.09,1.06,0,1.12-.65,1.12-.78,0-.38-.33-.79-.86-.79-.43,0-1.13-.04-1.59-.12-.7-.11-.83-.4-.95-1.43-.17-1.49-.19-4.33-.19-7.18v-.33l2.88,.08c.17,0,.23,.02,.29,.08,.17,.21,.56,.79,1.01,1.47,.63,.94,1.41,2.11,2.17,3.15,2.05,2.86,3.29,4.36,4.76,5.12,.99,.54,2.01,.74,3.91,.74h3.23c.26,0,.44-.04,.6-.1,.15,.06,.34,.1,.6,.1,.71,0,1.56-.04,2.35-.08,.49,0,.95-.01,1.32-.03,.25,0,.46-.01,.61-.01,.85,0,1.9,.03,3.23,.06l.69,.02c1.65,.08,3.69,.12,6.26,.12,1.27,0,1.91,0,2.24-1.19,.18-.7,.47-3.05,.47-3.87,0-1.01-.4-1.23-.74-1.23Zm-29.25-12.12c0,2.65-1.1,4.01-2.02,4.69-.47,.36-.83,.47-2.13,.47-.58,0-1.67-.04-2.45-.3,0,0-.02-.04-.02-.19l-.03-10.18c.31-.07,1.09-.12,1.91-.12s4.73,.27,4.73,5.62Z"/></g><g><path class="cls-1" d="M147.62,14.05h71.49l10.12-6.79h40.59c-15.94-4.68-33.38-7.26-51.64-7.26-31.24,0-70.55,14.05-70.55,14.05Z"/><path class="cls-1" d="M219.11,23.01h-88.86c-5.88,3.54-11.34,7.44-16.33,11.64l12.67,6.79h92.52l10.12-6.79h93.21c-2.81-2.37-5.76-4.63-8.86-6.79h-84.35l-10.12-4.85Z"/><path class="cls-1" d="M299.15,55.57h-69.92l-10.12-4.85h-82.82l4.68,4.85h-46.18c-1.5,2.21-2.9,4.48-4.19,6.78h56.5l5.7,6.8h66.31l10.12-6.8h63.71l-5.7,6.8h61.89c-2.85-6.46-6.58-12.62-11.11-18.42h-34.18l-4.69,4.85Z"/><path class="cls-1" d="M276.93,82.82h-47.7l-10.12-4.85h-59.42l3.42,4.85H82.64c-.52,2.24-.95,4.5-1.26,6.79h86.16l4.3,6.78h47.27l10.12-6.78h43.02l-4.24,6.78h87.58c-.27-6.31-1.35-12.47-3.16-18.42h-72.14l-3.35,4.85Z"/><path class="cls-1" d="M260.22,110.34h-31l-10.12-4.85h-42.09l2.69,4.85H81.53c.34,2.28,.78,4.54,1.34,6.78h100.09l3.05,6.79h33.1l10.12-6.79h27.58l-3.1,6.79h97.75c2.08-5.94,3.4-12.11,3.93-18.42h-92.57l-2.6,4.85Z"/><path class="cls-1" d="M248.2,137.85h-18.97l-10.12-4.85h-29.36l1.81,4.85H91.33c1.33,2.32,2.79,4.58,4.35,6.8h98.17l2.21,6.78h23.04l10.12-6.78h16.57l-2.15,6.78h91.76c4.91-5.78,9.01-11.94,12.22-18.42h-97.52l-1.9,4.85Z"/><path class="cls-1" d="M239.98,165.37h-10.75l-10.12-4.85h-20.7l1.21,4.85H115.23c2.89,2.37,5.93,4.63,9.12,6.79h76.72l1.2,6.78h16.84l10.12-6.78h9.23l-1.26,6.78h63.64c9.7-5.29,18.41-11.49,25.87-18.43h-85.52l-1.2,4.85Z"/><path class="cls-1" d="M235.3,192.89h-6.07l-10.12-4.85h-15.45l.57,4.85h-33.36c14.75,3.91,30.68,6.04,47.3,6.04,22.56,0,43.84-3.93,62.61-10.89h-44.98l-.51,4.85Z"/></g></svg>